<svg height="512" viewBox="0 0 48 48" width="512" xmlns="http://www.w3.org/2000/svg">
  <path d="M42.28 30.5c-2.6 1.29-5.36 1.95-8.23 1.95-10.2 0-18.5-8.3-18.5-18.5 0-2.86.66-5.63 1.95-8.23.29-.58.17-1.27-.28-1.73a1.49 1.49 0 00-1.73-.28C8.13 7.38 3.55 14.75 3.55 22.95c0 11.86 9.64 21.5 21.5 21.5 8.2 0 15.57-4.57 19.24-11.94.29-.58.17-1.27-.28-1.73-.46-.46-1.16-.57-1.73-.28zM25.05 41.45c-10.2 0-18.5-8.3-18.5-18.5 0-5.58 2.47-10.72 6.64-14.18-.42 1.69-.64 3.42-.64 5.18 0 11.86 9.64 21.5 21.5 21.5 1.76 0 3.5-.21 5.18-.64-3.46 4.17-8.6 6.64-14.18 6.64z"/>
</svg>

